<?xml version="1.0" encoding="utf-8"?>
<!-- Generator: Adobe Illustrator 21.0.0, SVG Export Plug-In . SVG Version: 6.00 Build 0)  -->
<svg version="1.1" id="Layer_1" xmlns="http://www.w3.org/2000/svg" xmlns:xlink="http://www.w3.org/1999/xlink" x="0px" y="0px"
	 viewBox="0 0 317.2 73" style="enable-background:new 0 0 317.2 73;" xml:space="preserve">
<style type="text/css">
	.st0{fill:#929497;}
</style>
<g>
	<g>
		<polygon class="st0" points="14.1,52.4 14,52.4 11,29.1 0,29.1 7.7,61.5 20.4,61.5 28.3,29.1 17.1,29.1 		"/>
		<rect x="29.5" y="18.8" class="st0" width="10.8" height="8"/>
		<path class="st0" d="M56.5,19.6H45.7v9.5h-5.3H40H29.5v32.4h10.8V36.4h5.3v17.3c0,1.8,0.2,3.2,0.5,4.3c0.3,1.1,0.9,1.9,1.6,2.5
			c0.7,0.6,1.7,0.9,2.8,1c1.2,0.1,2.6,0.2,4.2,0.2c0.9,0,1.9,0,2.9-0.1c1-0.1,2-0.1,3-0.1v-7.2H59c-0.9,0-1.5-0.2-1.9-0.6
			c-0.4-0.4-0.6-1-0.6-1.9V36.4h4.3v-7.2h-4.3V19.6z"/>
		<path class="st0" d="M88.8,54.5V38.7c0-2.1-0.3-3.8-0.9-5.2c-0.6-1.3-1.5-2.4-2.6-3.2c-1.1-0.8-2.5-1.3-4.1-1.6
			c-1.6-0.3-3.3-0.5-5.2-0.5c-1.2,0-2.6,0.1-4,0.4c-1.4,0.3-2.8,0.8-4,1.6c-1.2,0.8-2.3,1.9-3.1,3.3c-0.8,1.4-1.3,3.3-1.3,5.7h9.3
			c0-1.7,0.3-2.9,0.8-3.4c0.5-0.6,1.2-0.9,2.3-0.9c1.8,0,2.8,1,2.8,3c0,1-0.2,1.8-0.7,2.3c-0.5,0.5-1.3,1-2.5,1.2l-4.3,1
			c-1.7,0.4-3.2,0.9-4.3,1.5c-1.2,0.6-2.1,1.3-2.8,2.1c-0.7,0.8-1.2,1.8-1.5,2.9c-0.3,1.1-0.4,2.4-0.4,4c0,1.4,0.2,2.7,0.5,3.8
			c0.3,1.2,0.8,2.2,1.6,3c0.7,0.8,1.6,1.5,2.8,1.9c1.1,0.4,2.5,0.6,4.2,0.6c1.7,0,3.2-0.4,4.5-1.1c1.3-0.7,2.2-1.8,2.8-3.2h0.1
			c0.1,0.7,0.2,1.3,0.2,1.9c0.1,0.6,0.2,1.2,0.4,1.7h10.4c-0.4-0.8-0.7-1.8-0.8-3C88.8,57.4,88.8,56.1,88.8,54.5z M78.7,49.8
			c0,1.8-0.3,3.1-0.8,4c-0.5,0.9-1.4,1.3-2.6,1.3c-0.8,0-1.4-0.3-1.9-1c-0.5-0.6-0.7-1.5-0.7-2.6c0-1.1,0.2-1.9,0.5-2.6
			c0.3-0.7,0.9-1.2,1.7-1.6c0.8-0.4,1.5-0.6,2.2-0.7c0.7-0.1,1.1-0.4,1.5-0.8h0.1V49.8z"/>
		<path class="st0" d="M133,30.1c-0.8-0.7-1.6-1.1-2.7-1.4c-1-0.3-2.1-0.4-3.3-0.4c-1.7,0-3.2,0.4-4.7,1.1c-1.5,0.7-2.6,2-3.4,3.9
			c-0.7-1.7-1.6-2.9-2.8-3.7c-1.2-0.8-2.9-1.2-5.1-1.2c-3.8,0-6.5,1.6-7.9,4.8H103v-4H92.6v32.4h10.8V40.2c0-1.4,0.2-2.3,0.6-2.9
			c0.4-0.6,1.1-0.9,2-0.9c1,0,1.6,0.3,2,0.9c0.4,0.6,0.6,1.6,0.6,2.9v21.4h10.8V40.2c0-1.4,0.2-2.3,0.6-2.9c0.4-0.6,1.1-0.9,2-0.9
			c1,0,1.6,0.3,2,0.9c0.4,0.6,0.6,1.6,0.6,2.9v21.4h10.8V37.1c0-1.8-0.2-3.2-0.7-4.3C134.4,31.7,133.8,30.8,133,30.1z"/>
		<rect x="138.9" y="53.5" class="st0" width="10.8" height="8"/>
		<rect x="138.9" y="18.8" class="st0" width="10.8" height="32.4"/>
		<path class="st0" d="M177.9,30.1c-0.8-0.7-1.6-1.1-2.7-1.4c-1-0.3-2.1-0.4-3.3-0.4c-3.8,0-6.5,1.6-7.9,4.8h-0.1v-4h-10.4v32.4
			h10.8V40.2c0-1.4,0.2-2.3,0.6-2.9c0.4-0.6,1.1-0.9,2-0.9c1,0,1.6,0.3,2,0.9c0.4,0.6,0.6,1.6,0.6,2.9v21.4h10.8V37.1
			c0-1.8-0.2-3.2-0.7-4.3C179.2,31.7,178.7,30.8,177.9,30.1z"/>
		<path class="st0" d="M221.3,54.5V38.7c0-2.1-0.3-3.8-0.9-5.2c-0.6-1.3-1.5-2.4-2.6-3.2c-1.1-0.8-2.5-1.3-4.1-1.6
			c-1.6-0.3-3.3-0.5-5.2-0.5c-1.2,0-2.6,0.1-4,0.4c-1.4,0.3-2.8,0.8-4,1.6c-1.2,0.8-2.3,1.9-3.1,3.3c-0.8,1.4-1.3,3.3-1.3,5.7h9.3
			c0-1.7,0.3-2.9,0.8-3.4c0.5-0.6,1.2-0.9,2.3-0.9c1.8,0,2.8,1,2.8,3c0,1-0.2,1.8-0.7,2.3c-0.5,0.5-1.3,1-2.5,1.2l-4.3,1
			c-1.7,0.4-3.2,0.9-4.3,1.5c-1.2,0.6-2.1,1.3-2.8,2.1c-0.7,0.8-1.2,1.8-1.5,2.9c-0.3,1.1-0.4,2.4-0.4,4c0,1.4,0.2,2.7,0.5,3.8
			c0.3,1.2,0.8,2.2,1.6,3c0.7,0.8,1.6,1.5,2.8,1.9c1.1,0.4,2.5,0.6,4.2,0.6c1.7,0,3.2-0.4,4.5-1.1c1.3-0.7,2.2-1.8,2.8-3.2h0.1
			c0.1,0.7,0.2,1.3,0.2,1.9c0.1,0.6,0.2,1.2,0.4,1.7h10.4c-0.4-0.8-0.7-1.8-0.8-3C221.3,57.4,221.3,56.1,221.3,54.5z M211.2,49.8
			c0,1.8-0.3,3.1-0.8,4c-0.5,0.9-1.4,1.3-2.6,1.3c-0.8,0-1.4-0.3-1.9-1s-0.7-1.5-0.7-2.6c0-1.1,0.2-1.9,0.5-2.6
			c0.3-0.7,0.9-1.2,1.7-1.6c0.8-0.4,1.5-0.6,2.2-0.7c0.7-0.1,1.1-0.4,1.5-0.8h0.1V49.8z"/>
		<path class="st0" d="M241.6,33.6h-0.1c-0.7-1.8-1.6-3.1-2.8-4c-1.2-0.9-2.7-1.3-4.6-1.3c-3.6,0-6.1,1.5-7.6,4.4
			c-1.4,2.9-2.2,7.4-2.2,13.4c0,3.1,0.2,5.7,0.7,7.8c0.5,2.1,1.1,3.8,1.9,5c0.8,1.3,1.9,2.1,3.1,2.6c1.2,0.5,2.6,0.7,4.2,0.7
			c1.5,0,2.9-0.3,4.1-0.9c1.2-0.6,2.1-1.7,2.7-3.4h0.1v14H252V29.1h-10.4V33.6z M241.1,49.7c-0.1,1.2-0.2,2.1-0.4,2.8
			c-0.2,0.7-0.5,1.2-0.9,1.5c-0.4,0.3-0.9,0.4-1.5,0.4c-0.6,0-1.2-0.1-1.6-0.4c-0.4-0.3-0.7-0.8-0.9-1.5c-0.2-0.7-0.4-1.6-0.4-2.8
			c-0.1-1.2-0.1-2.6-0.1-4.4c0-1.8,0-3.2,0.1-4.3c0.1-1.1,0.2-2.1,0.4-2.8c0.2-0.7,0.5-1.2,0.9-1.5c0.4-0.3,0.9-0.4,1.6-0.4
			c0.6,0,1.1,0.1,1.5,0.4c0.4,0.3,0.7,0.8,0.9,1.5c0.2,0.7,0.4,1.6,0.4,2.8c0.1,1.1,0.1,2.6,0.1,4.3
			C241.2,47.1,241.2,48.5,241.1,49.7z"/>
		<path class="st0" d="M271.8,50.5c0,1.4-0.2,2.3-0.6,2.9c-0.4,0.6-1.1,0.9-2,0.9s-1.6-0.3-2-0.9c-0.4-0.6-0.6-1.6-0.6-2.9V29.1
			h-10.8v24.4c0,1.7,0.2,3.1,0.7,4.3c0.4,1.1,1,2,1.8,2.7c0.8,0.7,1.6,1.1,2.7,1.3c1,0.2,2.1,0.3,3.3,0.3c3.9,0,6.5-1.5,7.9-4.6h0.1
			v4h10.4V29.1h-10.8V50.5z"/>
		<path class="st0" d="M311.4,54.5V38.7c0-2.1-0.3-3.8-0.9-5.2c-0.6-1.3-1.5-2.4-2.6-3.2c-1.1-0.8-2.5-1.3-4.1-1.6
			c-1.6-0.3-3.3-0.5-5.2-0.5c-1.2,0-2.6,0.1-4,0.4c-1.4,0.3-2.8,0.8-4,1.6c-1.2,0.8-2.3,1.9-3.1,3.3c-0.8,1.4-1.3,3.3-1.3,5.7h9.3
			c0-1.7,0.3-2.9,0.8-3.4c0.5-0.6,1.2-0.9,2.3-0.9c1.8,0,2.8,1,2.8,3c0,1-0.2,1.8-0.7,2.3c-0.5,0.5-1.3,1-2.5,1.2l-4.3,1
			c-1.7,0.4-3.2,0.9-4.3,1.5c-1.2,0.6-2.1,1.3-2.8,2.1c-0.7,0.8-1.2,1.8-1.5,2.9c-0.3,1.1-0.4,2.4-0.4,4c0,1.4,0.2,2.7,0.5,3.8
			c0.3,1.2,0.8,2.2,1.6,3c0.7,0.8,1.6,1.5,2.8,1.9c1.1,0.4,2.5,0.6,4.2,0.6c1.7,0,3.2-0.4,4.5-1.1c1.3-0.7,2.2-1.8,2.8-3.2h0.1
			c0.1,0.7,0.2,1.3,0.2,1.9c0.1,0.6,0.2,1.2,0.4,1.7h10.4c-0.4-0.8-0.7-1.8-0.8-3C311.5,57.4,311.4,56.1,311.4,54.5z M301.3,49.8
			c0,1.8-0.3,3.1-0.8,4c-0.5,0.9-1.4,1.3-2.6,1.3c-0.8,0-1.4-0.3-1.9-1c-0.5-0.6-0.7-1.5-0.7-2.6c0-1.1,0.2-1.9,0.5-2.6
			c0.3-0.7,0.9-1.2,1.7-1.6c0.8-0.4,1.5-0.6,2.2-0.7c0.7-0.1,1.1-0.4,1.5-0.8h0.1V49.8z"/>
		<path class="st0" d="M130.9,25.2c1.5,0.2,4.6-3,3.7-4.2c-47.4-2.9-72.3,10.7-71.8-5.7c0-1.3,0.2-2.5,0.5-3.8
			c0.3-1.3,0.7-2.5,1.2-3.7c0.5-1.2,1-2.2,1.6-3.1c0.6-0.9,1.2-1.6,1.7-2.2c0.6-0.5,1.1-0.8,1.6-0.8c0.6,0,0.9,0.2,1.1,0.7
			c0.2,0.5,0.3,1.1,0.2,2c-0.6,0.8-1.2,1.7-1.7,2.7c-0.6,1-1.1,1.9-1.6,2.9c-0.5,1-0.9,1.9-1.3,2.8c-0.4,0.9-0.7,1.7-0.9,2.3
			c-0.5,1.4-0.6,2.4-0.4,3.1c0.2,0.7,0.6,1,1.1,1c0.6,0,1.2-0.4,2-1.1c0.8-0.7,1.5-1.9,2.3-3.3c0.4-0.7,0.7-1.6,1-2.5
			c0.3-0.9,0.6-1.9,0.8-2.9c0.2-1,0.3-2,0.4-2.9c0.1-1,0-1.8-0.1-2.6c0.5-0.6,1-1.1,1.4-1.4c0.4-0.4,0.8-0.5,1.2-0.5
			c0.6,0,1,0.3,1.2,0.8C76.1,3,76.2,3.7,76,4.5c-0.1,0.8-0.4,1.6-0.7,2.6c-0.4,1-0.8,1.9-1.2,2.8c-0.5,1-0.9,2.1-1.3,3.3
			c-0.3,1.1-0.5,2.2-0.4,3.1c0,1,0.3,1.7,0.7,2.4c0.4,0.6,1.2,0.9,2.2,0.9c0.7,0,1.3-0.1,1.9-0.4c0.6-0.2,1.1-0.5,1.5-0.9
			c0.4-0.3,0.7-0.7,1-1.1c0.1,0.3,0.2,0.5,0.3,0.7c0.3,0.5,0.7,0.9,1.3,1.2c0.5,0.3,1.1,0.4,1.7,0.5c0.6,0,1.2-0.1,1.9-0.3
			c0.7-0.2,1.3-0.6,1.9-1c0.6-0.5,1.2-1.1,1.8-1.8c0.5-0.7,1-1.6,1.4-2.5c0,0,0,0,0,0l0.9-2.1c0.4,0.2,0.8,0.3,1.1,0.4
			c0.4,0.1,0.7,0.1,1,0.1c-0.4,0.6-0.7,1.3-0.9,2.1c-0.2,0.8-0.4,1.5-0.4,2.2c0,0.7,0.1,1.4,0.3,1.9c0.2,0.5,0.6,0.9,1.2,1
			c0.4,0.1,0.8,0.1,1.2-0.1c0.4-0.2,0.8-0.5,1.1-0.8c0.3-0.3,0.7-0.7,1-1.2c0.3-0.5,0.6-0.9,0.8-1.3c0.1-0.3,0.3-0.5,0.4-0.8
			c0,0.1,0,0.3,0,0.4c0,1.2,0.2,2.1,0.6,2.8c0.4,0.7,1,1.1,1.9,1.1c0.5,0,1-0.2,1.5-0.7c0.5-0.5,0.9-1,1.3-1.6
			c0.3-0.5,0.6-0.9,0.8-1.4c-0.1,0.5-0.1,1.1,0,1.5c0.1,0.6,0.3,1,0.5,1.4c0.3,0.4,0.7,0.6,1.2,0.7c0.4,0.1,0.8,0,1.2-0.2
			c0.4-0.2,0.8-0.5,1.1-0.8c0.4-0.3,0.7-0.7,1-1.2c0.1-0.2,0.3-0.4,0.4-0.6c-0.1,0.5-0.1,1-0.1,1.4c0.1,0.6,0.2,1,0.5,1.2
			c0.2,0.2,0.5,0.3,0.8,0.2c0.3-0.1,0.5-0.5,0.7-1l0.1-0.4c0.4-1,0.8-1.9,1.3-2.8c0.5-0.9,1.1-1.7,1.7-2.4c0.6-0.7,1.1-1.3,1.6-1.7
			c0.5-0.4,0.9-0.6,1.3-0.6c0,0.1-0.1,0.3-0.2,0.6c-0.1,0.3-0.2,0.6-0.3,0.9c-0.1,0.3-0.2,0.7-0.4,1c-0.1,0.3-0.2,0.7-0.4,1
			c-0.3,0.8-0.4,1.6-0.5,2.2c-0.1,0.7-0.1,1.3,0,1.8c0.1,0.5,0.3,0.9,0.5,1.2c0.3,0.3,0.6,0.4,1.1,0.4c0.6,0,1.2-0.2,1.8-0.7
			c0.6-0.5,1.1-1,1.5-1.6c0.4-0.6,0.8-1.2,1.1-1.9s0.5-1.1,0.7-1.5c0.1-0.3,0.2-0.6,0.2-0.7c0-0.2,0-0.2-0.1-0.2
			c-0.1,0-0.2,0.1-0.3,0.2c-0.1,0.2-0.3,0.4-0.4,0.7c-0.3,0.6-0.6,1.2-0.9,1.8c-0.4,0.6-0.7,1-1.1,1.4c-0.4,0.4-0.7,0.7-1,0.9
			c-0.3,0.2-0.6,0.3-0.9,0.2c-0.2-0.1-0.3-0.3-0.3-0.6c0-0.4,0.2-0.8,0.4-1.3c0.2-0.5,0.5-1.1,0.8-1.8c0.3-0.7,0.6-1.3,0.8-2
			c0.3-0.7,0.5-1.3,0.7-1.9c0.2-0.6,0.2-1.1,0.2-1.5c-0.1-0.5-0.2-0.9-0.6-1.1c-0.3-0.2-0.8-0.3-1.3-0.3c-0.5,0.1-1.1,0.3-1.7,0.6
			c-0.6,0.4-1.2,0.9-1.8,1.6c-0.7,0.9-1.4,1.8-2,2.9c0.2-0.8,0.5-1.6,0.7-2.3c0.2-0.8,0.4-1.4,0.5-2c0.1-0.5,0.1-0.8-0.1-1
			c-0.1-0.2-0.3-0.3-0.5-0.3c-0.2,0-0.5,0.1-0.7,0.3c-0.2,0.2-0.4,0.5-0.5,0.8c-0.3,0.8-0.5,1.6-0.8,2.3c-0.3,0.8-0.6,1.5-0.8,2.1
			c-0.2,0.5-0.3,0.9-0.5,1.3c-0.2,0.4-0.5,0.9-0.8,1.4c-0.3,0.5-0.7,1-1.1,1.5c-0.4,0.4-0.8,0.8-1.1,1c-0.4,0.2-0.7,0.3-1,0.2
			c-0.2-0.1-0.3-0.3-0.3-0.6c0-0.3,0-0.7,0.1-1.2c0.1-0.5,0.3-1,0.5-1.5c0.2-0.6,0.5-1.1,0.7-1.7c0.3-0.6,0.5-1.1,0.8-1.6
			c0.3-0.5,0.6-1,0.8-1.3c0.2-0.3,0.3-0.6,0.2-1c-0.1-0.4-0.3-0.7-0.5-1c-0.3-0.3-0.6-0.4-0.9-0.4c-0.3,0-0.7,0.2-0.9,0.6
			c-0.5,0.8-0.9,1.6-1.3,2.4c-0.4,0.8-0.7,1.6-0.9,2.4c-0.1,0.2-0.1,0.5-0.2,0.7c-0.2,0.4-0.4,0.8-0.7,1.3c-0.3,0.5-0.6,1-0.9,1.4
			c-0.3,0.5-0.7,0.8-1.1,1.1c-0.4,0.3-0.7,0.5-1,0.5c-0.3,0-0.5-0.2-0.6-0.5c-0.1-0.4-0.2-0.9-0.2-1.5c0-0.6,0.1-1.4,0.2-2.2
			c0.1-0.8,0.4-1.7,0.6-2.7c0.2-0.2,0.4-0.6,0.7-1c0.3-0.4,0.7-0.9,1-1.4c0.4-0.5,0.8-1.1,1.2-1.7c0.4-0.6,0.8-1.3,1.2-1.9
			c0.7-1.2,1.2-2.2,1.4-3c0.2-0.8,0.2-1.4-0.1-1.8C105.9,0.1,105.5,0,105,0c-0.5,0.1-1.1,0.4-1.7,0.9c-0.7,0.5-1.3,1.3-2,2.2
			c-0.7,1-1.3,2.2-1.9,3.7c-0.6,1.6-1.1,3.2-1.4,4.8c-0.2,0.8-0.3,1.6-0.4,2.3c0,0,0,0,0,0c-0.2,0.5-0.5,1-0.8,1.5
			c-0.3,0.5-0.7,1-1.1,1.5c-0.4,0.4-0.8,0.8-1.2,1c-0.4,0.2-0.7,0.3-1,0.2c-0.2-0.1-0.4-0.3-0.4-0.5c0-0.3,0-0.6,0.1-1
			c0.1-0.4,0.2-0.8,0.4-1.3c0.2-0.5,0.4-1,0.7-1.5c0.3-0.5,0.5-1,0.8-1.5c0.3-0.5,0.6-0.9,0.8-1.3c0.2-0.3,0.3-0.6,0.2-1
			c-0.1-0.4-0.3-0.7-0.5-1c-0.3-0.3-0.6-0.4-0.9-0.4c-0.3,0-0.7,0.2-0.9,0.6l0,0c-0.3,0.4-0.6,0.7-1,0.7c-0.4,0.1-0.8,0-1.1-0.2
			c0.1-0.3,0.2-0.6,0.3-1c0.1-0.3,0.1-0.6,0-0.9c-0.1-0.3-0.2-0.5-0.5-0.6c-0.2-0.2-0.5-0.2-1-0.2c-0.5,0.1-0.9,0.3-1.2,0.6
			c-0.3,0.3-0.4,0.8-0.4,1.2c0,0.5,0.1,0.9,0.4,1.4c0.3,0.5,0.6,0.9,1.1,1.2l-1,2.3l0,0c-0.2,0.5-0.5,1-0.9,1.4
			c-0.3,0.5-0.7,0.8-1.2,1.2c-0.5,0.3-1,0.6-1.5,0.8c-0.6,0.2-1.2,0.2-2,0.2c-0.5-0.1-0.8-0.2-1.1-0.4c-0.3-0.2-0.6-0.5-0.8-0.8
			c-0.2-0.3-0.3-0.7-0.4-1.1c-0.1-0.4-0.1-0.8-0.1-1.3c0.2,0.2,0.5,0.5,0.8,0.7c0.3,0.2,0.7,0.4,1.2,0.5c0.4,0.1,0.9,0.1,1.4,0.1
			c0.5,0,1-0.2,1.5-0.5c0.4-0.2,0.8-0.6,1.1-1c0.3-0.4,0.6-0.9,0.8-1.4c0.2-0.5,0.3-1,0.4-1.5c0-0.5,0-1-0.2-1.4
			c-0.2-0.4-0.4-0.8-0.8-1C87,8,86.5,7.8,85.8,7.8c-0.7,0-1.3,0.1-2,0.5c-0.6,0.3-1.2,0.8-1.8,1.4c-0.5,0.6-1,1.2-1.4,2
			c-0.2,0.4-0.4,0.8-0.6,1.2c0,0,0-0.1-0.1-0.1c-0.3-0.4-0.6-0.6-0.9-0.7c-0.3,0-0.7,0-0.9,0.2c-0.3,0.2-0.5,0.4-0.7,0.7
			c-0.2,0.3-0.3,0.5-0.3,0.8c0.3,0,0.5,0.1,0.6,0.4c0.1,0.3,0.2,0.6,0.2,0.9c0,0.4,0,0.8-0.1,1.2c-0.1,0.4-0.3,0.8-0.5,1.2
			c-0.2,0.4-0.5,0.7-0.8,0.9c-0.3,0.3-0.7,0.4-1.2,0.4c-0.6,0-1-0.2-1.2-0.7c-0.2-0.5-0.1-1.1,0-1.8c0.2-0.8,0.5-1.6,0.9-2.6
			c0.4-1,0.9-2,1.5-3c0.4-0.7,0.7-1.5,0.9-2.3C77.9,7.5,78,6.7,78.1,6c0.1-0.7,0.1-1.4,0-2.1c-0.1-0.6-0.3-1.2-0.5-1.7
			c-0.3-0.5-0.6-0.8-1.1-1.1c-0.5-0.3-1-0.4-1.6-0.3c-0.5,0-0.9,0.2-1.4,0.6c-0.5,0.3-1,0.8-1.5,1.3c-0.2-0.6-0.5-1.1-0.9-1.5
			c-0.4-0.3-1-0.5-1.6-0.4c-0.7,0.1-1.5,0.4-2.3,1c-0.8,0.6-1.6,1.4-2.4,2.3c-0.8,0.9-1.5,2-2.1,3.2C57.9,15.6,60,20.6,62,22.4
			C69.3,29.3,101.9,20.5,130.9,25.2z M69.8,8.7c-0.2,0.9-0.5,1.7-0.8,2.5c-0.3,0.8-0.6,1.6-0.9,2.3c-0.3,0.7-0.5,1.3-0.8,1.9
			c-0.4,0.8-0.7,1.4-1,1.8c-0.3,0.4-0.5,0.6-0.7,0.6c-0.2,0-0.2-0.2-0.2-0.7c0-0.4,0.1-1,0.4-1.8c0.2-0.6,0.4-1.2,0.8-2
			c0.3-0.7,0.7-1.5,1.1-2.3c0.4-0.8,0.8-1.6,1.3-2.5C69.5,7.8,70,7,70.4,6.3C70.3,7.1,70.1,7.9,69.8,8.7z M101.3,9l1.2-3.1
			c0.6-1.5,1.1-2.6,1.6-3.3c0.5-0.7,0.8-1,1-1c0.2,0,0.2,0.4,0,1.1c-0.2,0.7-0.7,1.7-1.5,2.9c-0.4,0.7-0.8,1.3-1.2,2
			c-0.4,0.7-0.8,1.3-1.2,1.8L101.3,9z M82,11.5c0.2-0.5,0.5-0.9,0.8-1.3c0.3-0.4,0.7-0.6,1.1-0.8c0.4-0.2,0.8-0.3,1.3-0.2
			c0.3,0.1,0.5,0.2,0.7,0.4c0.1,0.2,0.2,0.5,0.2,0.8c0,0.3-0.1,0.6-0.3,1c-0.1,0.3-0.3,0.7-0.6,1c-0.2,0.3-0.5,0.6-0.8,0.8
			c-0.3,0.2-0.6,0.4-0.9,0.4c-0.6,0.1-1,0.1-1.3-0.1c-0.3-0.1-0.6-0.3-0.7-0.4C81.6,12.5,81.8,12,82,11.5z"/>
		<path class="st0" d="M110.1,6.2c0.3,0,0.7-0.1,0.9-0.3c0.4-0.4,0.7-0.8,0.7-1.4c0-0.5-0.2-1-0.7-1.3c-0.2-0.2-0.6-0.3-0.9-0.4
			c-0.6-0.1-1,0.1-1.4,0.5c-0.3,0.3-0.5,0.8-0.5,1.2c0,0.5,0.2,0.9,0.5,1.2C109.1,6.1,109.6,6.3,110.1,6.2z"/>
		<path class="st0" d="M123.4,8.8c0.2,0.1,0.3,0.1,0.6,0c0.2,0,0.5-0.1,0.7-0.3c0.3-0.1,0.5-0.3,0.7-0.6c0.2-0.2,0.4-0.5,0.6-0.8
			c0.3-0.5,0.3-1,0.2-1.3c-0.1-0.4-0.3-0.6-0.6-0.7c-0.3-0.1-0.6-0.1-0.9,0c-0.3,0.1-0.5,0.3-0.7,0.7c-0.2,0.3-0.2,0.6-0.1,0.8
			c0.1,0.3,0.2,0.5,0.3,0.7c0.1,0.2,0.1,0.5,0,0.7C124.1,8.2,123.8,8.5,123.4,8.8z"/>
		<path class="st0" d="M125.6,16.5c0.1,0.8,0.4,1.4,0.8,2c0.2,0.3,0.5,0.5,0.8,0.6c0.3,0.2,0.7,0.3,1,0.3c0.4,0,0.7,0,1.1-0.1
			c0.4-0.1,0.7-0.2,1-0.4c0.6-0.3,1.1-0.6,1.5-1c0.4-0.4,0.8-0.8,1.2-1.3c0.3-0.5,0.7-0.9,0.9-1.4c0.3-0.5,0.5-1,0.7-1.4
			c0.1-0.2,0.1-0.3,0.1-0.4c0-0.1-0.1-0.1-0.1-0.1c-0.1,0-0.1,0.1-0.2,0.2c-0.1,0.1-0.2,0.2-0.3,0.4c-0.3,0.7-0.6,1.3-1,1.8
			c-0.4,0.6-0.8,1-1.3,1.5c0-0.1,0.1-0.2,0.1-0.3c0-0.1,0-0.2,0-0.4c0-0.6-0.1-1.2-0.2-1.8c-0.2-0.5-0.3-1.1-0.4-1.6
			c-0.1-0.5-0.2-1.1-0.1-1.7c0-0.6,0.3-1.2,0.7-1.9c0.4-0.6,0.5-1.1,0.4-1.4c-0.1-0.3-0.4-0.4-0.9-0.3c-0.4,0.1-0.9,0.3-1.5,0.7
			c-0.6,0.4-1.1,1-1.6,1.8c-0.4,0.6-0.8,1.2-1.1,1.8c-0.3,0.6-0.6,1.2-0.9,1.8C125.7,14.8,125.5,15.7,125.6,16.5z M126.5,15.2
			c0.1-0.6,0.3-1.1,0.6-1.6c0.3-0.5,0.5-1,0.8-1.5c0.3-0.5,0.6-0.9,0.8-1.4c-0.2,0.5-0.2,1-0.1,1.6c0.1,0.6,0.3,1.2,0.6,1.9
			c0.2,0.6,0.4,1.3,0.5,1.9c0.1,0.6,0.1,1.2-0.1,1.7c-0.2,0.4-0.4,0.6-0.7,0.7c-0.3,0.1-0.7,0.2-1,0.1c-0.3-0.1-0.7-0.3-0.9-0.6
			c-0.3-0.3-0.5-0.7-0.6-1.1C126.3,16.3,126.3,15.7,126.5,15.2z"/>
		<path class="st0" d="M315.5,23.6c-0.4-0.7-0.9-1.2-1.6-1.5c-0.7-0.4-1.4-0.5-2.1-0.5s-1.4,0.2-2.1,0.5c-0.7,0.4-1.2,0.9-1.6,1.5
			c-0.4,0.7-0.6,1.4-0.6,2.1c0,0.7,0.2,1.4,0.6,2.1c0.4,0.7,0.9,1.2,1.6,1.6c0.7,0.4,1.4,0.6,2.1,0.6c0.7,0,1.4-0.2,2.1-0.6
			c0.7-0.4,1.2-0.9,1.5-1.6c0.4-0.7,0.6-1.4,0.6-2.1C316,25,315.9,24.3,315.5,23.6z M314.9,27.5c-0.3,0.6-0.7,1-1.3,1.3
			c-0.6,0.3-1.1,0.5-1.7,0.5s-1.2-0.2-1.7-0.5c-0.6-0.3-1-0.7-1.3-1.3c-0.3-0.6-0.5-1.1-0.5-1.7c0-0.6,0.2-1.2,0.5-1.8
			c0.3-0.6,0.8-1,1.3-1.3c0.6-0.3,1.1-0.5,1.7-0.5c0.6,0,1.2,0.2,1.7,0.5c0.6,0.3,1,0.7,1.3,1.3c0.3,0.6,0.5,1.1,0.5,1.8
			C315.4,26.3,315.2,26.9,314.9,27.5z"/>
		<path class="st0" d="M312.6,26.3c-0.1-0.1-0.2-0.2-0.4-0.2c0.4,0,0.7-0.2,0.9-0.4c0.2-0.2,0.4-0.5,0.4-0.9c0-0.2-0.1-0.5-0.2-0.7
			c-0.1-0.2-0.3-0.4-0.6-0.4c-0.2-0.1-0.6-0.1-1.1-0.1H310V28h0.7v-1.9h0.4c0.3,0,0.4,0.1,0.6,0.2c0.2,0.1,0.4,0.5,0.8,1l0.4,0.7
			h0.9l-0.5-0.9C313,26.7,312.8,26.4,312.6,26.3z M311.6,25.5h-0.9v-1.4h0.8c0.4,0,0.6,0,0.7,0.1c0.1,0.1,0.2,0.1,0.3,0.2
			c0.1,0.1,0.1,0.2,0.1,0.4c0,0.2-0.1,0.4-0.2,0.5C312.3,25.4,312.1,25.5,311.6,25.5z"/>
	</g>
</g>
</svg>
